<?xml version="1.0" encoding="UTF-8"?>
<!DOCTYPE svg PUBLIC "-//W3C//DTD SVG 1.1//EN" "http://www.w3.org/Graphics/SVG/1.1/DTD/svg11.dtd" [
<!ENTITY ns_svg "http://www.w3.org/2000/svg">
<!ENTITY ns_xlink "http://www.w3.org/1999/xlink">
]>
<svg xmlns:rdf="http://www.w3.org/1999/02/22-rdf-syntax-ns#" xmlns:cc="http://creativecommons.org/ns#" xmlns:dc="http://purl.org/dc/elements/1.1/" xmlns:inkscape="http://www.inkscape.org/namespaces/inkscape" xmlns:svg="http://www.w3.org/2000/svg" xmlns="http://www.w3.org/2000/svg" xmlns:xlink="http://www.w3.org/1999/xlink" version="1.1" id="svg2" width="755.963" height="1148.941" viewBox="-82.89 -223.877 755.963 1148.94" overflow="visible" enable-background="new -82.89 -223.877 755.963 1148.941" xml:space="preserve">

<!--
 <rect id="background" x="-1000" y="-1000" width="2000" height="2000" fill="white" />
-->

 <g id="layer1" transform="translate(-399.707, 981.676)">
  <g id="g5035" transform="matrix(2.88734, 0, 0, 2.88734, -718.95, -185.979)">

   <polygon id="polygon4664" fill="#DEDEDD" points="600.363,-178.138 600.363,-298.138 560.363,-298.138 460.363,-218.138 400.363,-178.138"/>
   <polygon id="polygon4666" fill="#DEDEDD" points="600.363,21.862 600.363,-98.138 560.363,-98.138 460.363,-18.138 400.363,21.862"/>
   <path id="path4670" fill="#1F1A17" d="M605.398-177.432H390.363v-1.411h215.035V-177.432z M610.363-178.138l-9.878,4.234 l0.128-0.265l0.12-0.264l0.112-0.264l0.103-0.265l0.095-0.264l0.087-0.264l0.078-0.265l0.07-0.264l0.062-0.264l0.054-0.265 l0.046-0.264l0.037-0.264l0.029-0.265l0.021-0.264l0.012-0.264l0.004-0.265l-0.004-0.264l-0.012-0.264l-0.021-0.265l-0.029-0.264 l-0.037-0.264l-0.046-0.265l-0.054-0.264l-0.062-0.264l-0.07-0.265l-0.078-0.264l-0.087-0.264l-0.095-0.265l-0.103-0.264 l-0.112-0.264l-0.12-0.264l-0.128-0.265l0,0L610.363-178.138L610.363-178.138z"/>
   <path id="path4674" fill="#1F1A17" d="M605.398,22.568H390.363v-1.411h215.035V22.568z M610.363,21.862l-9.878,4.234l0.128-0.265 l0.12-0.264l0.112-0.264l0.103-0.265l0.095-0.264l0.087-0.264l0.078-0.265l0.07-0.264l0.062-0.264l0.054-0.265l0.046-0.264 l0.037-0.264l0.029-0.265l0.021-0.264l0.012-0.264l0.004-0.264l-0.004-0.265l-0.012-0.264l-0.021-0.265l-0.029-0.264l-0.037-0.264 l-0.046-0.264l-0.054-0.265l-0.062-0.264l-0.07-0.264l-0.078-0.265l-0.087-0.264l-0.095-0.264l-0.103-0.265l-0.112-0.264 l-0.12-0.264l-0.128-0.265l0,0L610.363,21.862L610.363,21.862z"/>
   <path id="path4676" fill="#D0CFCF" d="M460.363-218.138c50-10,80-40,100-80v-20h-77L460.363-218.138z"/>
   <path id="path4678" fill="#D0CFCF" d="M460.363-18.138c50-10,80-40,100-80v-20h-130v70L460.363-18.138z"/>
   <line id="line4680" fill="none" stroke="#1F1A17" stroke-width="0.3528" stroke-dasharray="1.764 1.764" x1="560.363" y1="-298.138" x2="560.363" y2="-178.138"/>
   <line id="line4682" fill="none" stroke="#1F1A17" stroke-width="0.3528" stroke-dasharray="1.764 1.764" x1="560.363" y1="-98.138" x2="560.363" y2="21.862"/>
   <line id="line4684" fill="none" stroke="#1F1A17" stroke-width="0.3528" stroke-dasharray="1.764 1.764" x1="509.369" y1="-38" x2="509.369" y2="21.862"/>

   <path id="path4730" fill="#C2C1C1" d="M400.363-178.138c30-10,40-20,60-40c16-40,18-50,23-100h-83V-178.138z"/>
   <path id="path4732" fill="#C2C1C1" d="M400.363,21.862c30-10,40-20,60-40c0-44.958-1.817-55.345-30-100h-30V21.862z"/>
   <path id="path4736" fill="#1F1A17" d="M400.363-328.138l4.217,9.839l0,0l-0.263-0.128l-0.264-0.119l-0.263-0.111l-0.263-0.103 l-0.264-0.095L403-318.941l-0.263-0.078l-0.264-0.07l-0.263-0.062l-0.264-0.054l-0.263-0.045l-0.264-0.037l-0.263-0.029 l-0.264-0.021l-0.263-0.012l-0.264-0.004l-0.263,0.004l-0.264,0.012l-0.263,0.021l-0.264,0.029l-0.263,0.037l-0.263,0.045 l-0.263,0.053l-0.264,0.062l-0.263,0.07l-0.264,0.078l-0.263,0.086l-0.264,0.095l-0.263,0.103l-0.264,0.111l-0.263,0.12 l-0.264,0.128L400.363-328.138L400.363-328.138z M399.66-168.138v-155.055h1.406v155.055H399.66z"/>
   <path id="path4740" fill="#1F1A17" d="M400.363-128.138l4.217,9.839l0,0l-0.263-0.128l-0.264-0.119l-0.263-0.111l-0.263-0.103 l-0.264-0.095L403-118.941l-0.263-0.078l-0.264-0.07l-0.263-0.062l-0.264-0.054l-0.263-0.045l-0.264-0.037l-0.263-0.029 l-0.264-0.021l-0.263-0.013l-0.264-0.004l-0.263,0.004l-0.264,0.013l-0.263,0.021l-0.264,0.029l-0.263,0.037l-0.263,0.045 l-0.263,0.053l-0.264,0.062l-0.263,0.07l-0.264,0.078l-0.263,0.086l-0.264,0.095l-0.263,0.103l-0.264,0.111l-0.263,0.12 l-0.264,0.128L400.363-128.138L400.363-128.138z M399.66,31.862v-155.055h1.406V31.862H399.66z"/>

  <path id="path4752" fill="#1F1A17" d="M562.876-296.881l-0.068,0.127l-0.073,0.122l-0.079,0.117l-0.084,0.112l-0.089,0.107 l-0.093,0.102l-0.098,0.097l-0.102,0.091l-0.106,0.086l-0.11,0.081l-0.113,0.075l-0.116,0.069l-0.119,0.063l-0.122,0.058 l-0.125,0.052l-0.127,0.046l-0.129,0.04l-0.131,0.033l-0.132,0.027l-0.134,0.021l-0.135,0.015l-0.136,0.008l-0.136,0.002 l-0.137-0.005l-0.137-0.012l-0.137-0.019l-0.136-0.026l-0.136-0.033l-0.135-0.04l-0.134-0.047l-0.133-0.054l-0.131-0.061l0,0 l-0.128-0.068l-0.122-0.074l-0.117-0.079l-0.113-0.084l-0.107-0.089l-0.102-0.094l-0.097-0.098l-0.091-0.102l-0.086-0.106 l-0.081-0.11l-0.075-0.113l-0.069-0.117l-0.063-0.12l-0.058-0.122l-0.052-0.125l-0.046-0.127l-0.04-0.129l-0.034-0.131 l-0.027-0.132l-0.021-0.134l-0.015-0.135l-0.008-0.136l-0.001-0.136l0.005-0.136l0.012-0.137l0.019-0.136l0.026-0.136l0.032-0.135 l0.04-0.135l0.047-0.133l0.054-0.132l0.061-0.131l0,0l0.068-0.127l0.073-0.122l0.079-0.118l0.084-0.112l0.089-0.107l0.094-0.102 l0.098-0.097l0.102-0.091l0.106-0.086l0.11-0.081l0.113-0.075l0.117-0.069l0.119-0.064l0.122-0.058l0.125-0.052l0.127-0.046 l0.129-0.04l0.131-0.033l0.133-0.027l0.134-0.021l0.135-0.015l0.136-0.008l0.136-0.002l0.137,0.005l0.137,0.012l0.137,0.019 l0.136,0.026l0.136,0.032l0.135,0.04l0.134,0.047l0.132,0.054l0.131,0.061l0,0l0.127,0.068l0.123,0.073l0.117,0.079l0.113,0.084 l0.107,0.089l0.102,0.094l0.097,0.098l0.091,0.102l0.086,0.106l0.081,0.11l0.075,0.113l0.069,0.117l0.063,0.12l0.058,0.122 l0.051,0.125l0.046,0.127l0.039,0.129l0.033,0.131l0.027,0.132l0.021,0.134l0.014,0.135l0.008,0.136l0.001,0.136l-0.005,0.136 l-0.012,0.137l-0.019,0.136l-0.025,0.136l-0.032,0.135l-0.04,0.135l-0.047,0.133l-0.054,0.132L562.876-296.881L562.876-296.881z M460.5-217.447l-0.276-1.384l4.61-0.99l4.495-1.105l4.378-1.219l4.269-1.331l4.156-1.438l4.049-1.546l3.945-1.652l3.838-1.757 l3.738-1.856l3.638-1.957l3.536-2.056l3.442-2.15l3.346-2.248l3.256-2.339l3.162-2.43l3.074-2.52l2.987-2.608l2.904-2.694 l2.816-2.775l2.737-2.861l2.656-2.938l2.58-3.02l2.501-3.097l2.428-3.172l2.355-3.242l2.286-3.317l2.217-3.386l2.149-3.454 l2.083-3.523l2.019-3.584l1.959-3.646l1.899-3.709l1.257,0.628l-1.91,3.731l-1.97,3.674l-2.036,3.612l-2.1,3.545l-2.166,3.481 l-2.233,3.414l-2.303,3.344l-2.377,3.276l-2.45,3.199l-2.528,3.124l-2.602,3.048l-2.684,2.972l-2.764,2.888l-2.85,2.809 l-2.931,2.722l-3.02,2.636l-3.108,2.548l-3.2,2.458l-3.289,2.367l-3.385,2.27l-3.48,2.178l-3.58,2.078l-3.676,1.979l-3.777,1.878 l-3.882,1.773l-3.984,1.669l-4.093,1.563l-4.201,1.455l-4.308,1.342l-4.422,1.23l-4.533,1.117L460.5-217.447L460.5-217.447z M460.916-215.372L460.916-215.372l-0.143,0.025l-0.142,0.017l-0.142,0.01l-0.141,0.003l-0.14-0.004l-0.138-0.011l-0.137-0.018 l-0.135-0.025l-0.134-0.031l-0.132-0.037l-0.129-0.044l-0.127-0.049l-0.124-0.056l-0.121-0.061l-0.118-0.067l-0.115-0.072 l-0.111-0.078l-0.107-0.083l-0.103-0.088l-0.099-0.093l-0.095-0.098l-0.09-0.102l-0.085-0.107l-0.08-0.111l-0.075-0.116 l-0.069-0.12l-0.064-0.124l-0.058-0.128l-0.052-0.131l-0.045-0.135l-0.039-0.138l-0.032-0.141l0,0l-0.025-0.143l-0.017-0.142 l-0.01-0.142l-0.003-0.141l0.004-0.14l0.011-0.139l0.018-0.137l0.025-0.136l0.031-0.134l0.038-0.132l0.043-0.129l0.05-0.127 l0.056-0.124l0.061-0.121l0.067-0.118l0.073-0.114l0.078-0.111l0.083-0.107l0.088-0.103l0.093-0.099l0.098-0.094l0.102-0.09 l0.107-0.085l0.111-0.08l0.116-0.075l0.12-0.069l0.123-0.064l0.128-0.058l0.131-0.051l0.135-0.045l0.138-0.039l0.141-0.032l0,0 l0.143-0.025l0.142-0.017l0.142-0.01l0.141-0.003l0.14,0.004l0.139,0.011l0.137,0.018l0.135,0.025l0.134,0.031l0.131,0.037 l0.129,0.044l0.127,0.049l0.124,0.055l0.121,0.062l0.118,0.067l0.115,0.073l0.111,0.078l0.107,0.083l0.103,0.088l0.099,0.093 l0.095,0.098l0.09,0.102l0.085,0.107l0.08,0.111l0.075,0.116l0.069,0.12l0.064,0.124l0.058,0.127l0.052,0.131l0.045,0.135 l0.039,0.138l0.032,0.141l0,0l0.025,0.143l0.017,0.142l0.01,0.142l0.003,0.141l-0.004,0.14l-0.012,0.139l-0.018,0.137 l-0.025,0.136l-0.031,0.134l-0.037,0.131l-0.044,0.13l-0.05,0.126l-0.056,0.124l-0.061,0.121l-0.067,0.118l-0.072,0.115 l-0.078,0.111l-0.083,0.107l-0.088,0.103l-0.093,0.099l-0.098,0.095l-0.102,0.09l-0.107,0.085l-0.111,0.08l-0.116,0.075 l-0.12,0.069l-0.123,0.064l-0.127,0.058l-0.131,0.052l-0.135,0.045l-0.138,0.039L460.916-215.372z"/>

   <path id="path4756" fill="#1F1A17" d="M562.876-96.881l-0.068,0.127l-0.073,0.122l-0.079,0.117l-0.084,0.113l-0.089,0.107 l-0.093,0.102l-0.098,0.097l-0.102,0.091l-0.106,0.086l-0.11,0.08l-0.113,0.075l-0.116,0.069l-0.119,0.064l-0.122,0.057 l-0.125,0.052l-0.127,0.046l-0.129,0.04l-0.131,0.033l-0.132,0.027l-0.134,0.021l-0.135,0.015l-0.136,0.008l-0.136,0.001 l-0.137-0.005l-0.137-0.012l-0.137-0.019l-0.136-0.026l-0.136-0.032l-0.135-0.04l-0.134-0.047l-0.133-0.054l-0.131-0.061l0,0 l-0.128-0.068l-0.122-0.074l-0.117-0.079l-0.113-0.084l-0.107-0.089l-0.102-0.094l-0.097-0.098l-0.091-0.102l-0.086-0.106 l-0.081-0.11l-0.075-0.113l-0.069-0.117l-0.063-0.119l-0.058-0.122l-0.052-0.125l-0.046-0.127l-0.04-0.129l-0.034-0.131 l-0.027-0.132l-0.021-0.134l-0.015-0.135l-0.008-0.136l-0.001-0.136l0.005-0.137l0.012-0.137l0.019-0.136l0.026-0.136l0.032-0.135 l0.04-0.135l0.047-0.134l0.054-0.132l0.061-0.131l0,0l0.068-0.127l0.073-0.122l0.079-0.117l0.084-0.112l0.089-0.107l0.094-0.102 l0.098-0.097l0.102-0.092l0.106-0.086l0.11-0.081l0.113-0.075l0.117-0.069l0.119-0.064l0.122-0.057l0.125-0.052l0.127-0.046 l0.129-0.04l0.131-0.033l0.133-0.027l0.134-0.021l0.135-0.015l0.136-0.008l0.136-0.001l0.137,0.005l0.137,0.012l0.137,0.019 l0.136,0.025l0.136,0.032l0.135,0.04l0.134,0.047l0.132,0.054l0.131,0.061l0,0l0.127,0.068l0.123,0.073l0.117,0.079l0.113,0.084 l0.107,0.089l0.102,0.094l0.097,0.098l0.091,0.102l0.086,0.106l0.081,0.11l0.075,0.114l0.069,0.116l0.063,0.12l0.058,0.122 l0.051,0.125l0.046,0.127l0.039,0.129l0.033,0.131l0.027,0.133l0.021,0.134l0.014,0.135l0.008,0.136l0.001,0.136l-0.005,0.136 l-0.012,0.137l-0.019,0.136l-0.025,0.136l-0.032,0.136l-0.04,0.135l-0.047,0.133l-0.054,0.132L562.876-96.881L562.876-96.881z M460.5-17.446l-0.276-1.384l4.61-0.99l4.495-1.105l4.378-1.219l4.269-1.331l4.156-1.438l4.049-1.546l3.945-1.652l3.838-1.757 l3.738-1.856l3.638-1.957l3.536-2.056l3.442-2.15l3.346-2.248l3.256-2.339l3.162-2.43l3.074-2.52l2.987-2.608l2.904-2.694 l2.816-2.775l2.737-2.861l2.656-2.938l2.58-3.02l2.501-3.097l2.428-3.172l2.355-3.242l2.286-3.317l2.217-3.386l2.149-3.454 l2.083-3.523l2.019-3.584l1.959-3.646l1.899-3.709l1.257,0.628l-1.91,3.731l-1.97,3.674l-2.036,3.612l-2.1,3.545l-2.166,3.482 l-2.233,3.414l-2.303,3.344l-2.377,3.276l-2.45,3.2l-2.528,3.124l-2.602,3.048L533.63-57.4l-2.764,2.888l-2.85,2.809l-2.931,2.722 l-3.02,2.635l-3.108,2.548l-3.2,2.458l-3.289,2.366l-3.385,2.27l-3.48,2.178l-3.58,2.078l-3.676,1.979l-3.777,1.878l-3.882,1.773 l-3.984,1.669l-4.093,1.563l-4.201,1.454l-4.308,1.342l-4.422,1.23l-4.533,1.116L460.5-17.446L460.5-17.446z M460.916-15.371 L460.916-15.371l-0.143,0.025l-0.142,0.017l-0.142,0.01l-0.141,0.003l-0.14-0.004l-0.138-0.011l-0.137-0.018l-0.135-0.024 l-0.134-0.031l-0.132-0.037l-0.129-0.044l-0.127-0.05l-0.124-0.055l-0.121-0.061l-0.118-0.067l-0.115-0.073l-0.111-0.078 l-0.107-0.083l-0.103-0.088l-0.099-0.093l-0.095-0.098l-0.09-0.102l-0.085-0.107l-0.08-0.112l-0.075-0.116l-0.069-0.12 l-0.064-0.123l-0.058-0.128l-0.052-0.131l-0.045-0.135l-0.039-0.138l-0.032-0.141l0,0l-0.025-0.143l-0.017-0.142l-0.01-0.142 l-0.003-0.141l0.004-0.14l0.011-0.139l0.018-0.137l0.025-0.135l0.031-0.134l0.038-0.132l0.043-0.129l0.05-0.127l0.056-0.124 l0.061-0.121l0.067-0.118l0.073-0.115l0.078-0.111l0.083-0.107l0.088-0.103l0.093-0.099l0.098-0.094l0.102-0.09l0.107-0.085 l0.111-0.08l0.116-0.075l0.12-0.069l0.123-0.064l0.128-0.058l0.131-0.051l0.135-0.045l0.138-0.039l0.141-0.032l0,0l0.143-0.025 l0.142-0.017l0.142-0.01l0.141-0.003l0.14,0.004l0.139,0.011l0.137,0.018l0.135,0.025l0.134,0.031l0.131,0.037l0.129,0.044 l0.127,0.05l0.124,0.055l0.121,0.061l0.118,0.067l0.115,0.073l0.111,0.078l0.107,0.083l0.103,0.088l0.099,0.093l0.095,0.098 l0.09,0.102l0.085,0.107l0.08,0.112l0.075,0.116l0.069,0.12l0.064,0.123l0.058,0.128l0.052,0.131l0.045,0.135l0.039,0.138 l0.032,0.141l0,0l0.025,0.143l0.017,0.142l0.01,0.142l0.003,0.141l-0.004,0.14l-0.012,0.139l-0.018,0.137l-0.025,0.135 l-0.031,0.134l-0.037,0.132l-0.044,0.129l-0.05,0.127l-0.056,0.124l-0.061,0.121l-0.067,0.118l-0.072,0.115l-0.078,0.111 l-0.083,0.107l-0.088,0.103l-0.093,0.099l-0.098,0.094l-0.102,0.09l-0.107,0.085l-0.111,0.08l-0.116,0.075l-0.12,0.069 l-0.123,0.064l-0.127,0.058l-0.131,0.051l-0.135,0.045l-0.138,0.039L460.916-15.371z"/>

   <path id="path4758" fill="none" stroke="#1F1A17" stroke-width="1.4111" d="M400.363-178.138c30-10,40-20,60-40 c12.679-29.052,20.033-57.203,23-100"/>
   <path id="path4760" fill="none" stroke="#1F1A17" stroke-width="1.4111" d="M400.363,21.862c30-10,40-20,60-40 c3.442-62.103-17.685-74.918-30-100"/>
   <line id="line4762" fill="none" stroke="#1F1A17" stroke-width="0.3528" stroke-dasharray="1.764 1.764" x1="560.363" y1="-298.138" x2="400.363" y2="-298.138"/>
   <line id="line4764" fill="none" stroke="#1F1A17" stroke-width="0.3528" stroke-dasharray="1.764 1.764" x1="560.363" y1="-98.138" x2="400.363" y2="-98.138"/>
   <line id="line4766" fill="none" stroke="#1F1A17" stroke-width="0.3528" stroke-dasharray="1.764 1.764" x1="509.87" y1="-38.138" x2="398.99" y2="-38.138"/>
   <line id="line4776" fill="none" stroke="#1F1A17" stroke-width="0.3528" x1="560.363" y1="-178.138" x2="560.363" y2="-168.138"/>
   <line id="line4778" fill="none" stroke="#1F1A17" stroke-width="0.3528" x1="560.363" y1="21.862" x2="560.363" y2="31.862"/>
   <line id="line4780" fill="none" stroke="#1F1A17" stroke-width="0.3528" x1="509.369" y1="21.862" x2="509.369" y2="31.862"/>
   <line id="line4782" fill="none" stroke="#1F1A17" stroke-width="0.3528" x1="460.38" y1="21.862" x2="460.38" y2="31.862"/>
   <line id="line4784" fill="none" stroke="#1F1A17" stroke-width="0.3528" x1="400.363" y1="-98.138" x2="390.363" y2="-98.138"/>
   <line id="line4786" fill="none" stroke="#1F1A17" stroke-width="0.3528" x1="400.363" y1="-38.138" x2="390.363" y2="-38.138"/>
   <line id="line4788" fill="none" stroke="#1F1A17" stroke-width="0.3528" x1="400.363" y1="-298.138" x2="390.363" y2="-298.138"/>		
   <line id="line2440" fill="none" stroke="#1F1A17" stroke-width="0.2998" stroke-dasharray="1.499 1.499" x1="460.13" y1="-17.8" x2="402.349" y2="-17.8"/>		
   <line id="line4790" fill="none" stroke="#1F1A17" stroke-width="0.2877" stroke-dasharray="1.4386 1.4386" x1="460.38" y1="-17.892" x2="460.38" y2="21.921"/>
   <line id="line2442" fill="none" stroke="#1F1A17" stroke-width="0.3528" x1="399.084" y1="-17.751" x2="389.084" y2="-17.751"/>


   <g fill="#1F1A17" font-family="TimesNewRomanPSMT" font-size="20">

    <switch><text transform="matrix(0.3463, 0, 0, 0.3463, 400.363, -136.139)" font-size="36" id="trsvg30-nl" systemLanguage="nl"><tspan id="trsvg1-nl">Fasediagram van water</tspan></text><text transform="matrix(0.3463, 0, 0, 0.3463, 400.363, -136.139)" font-size="36" id="trsvg30"><tspan id="trsvg1">Stoff mit Anomalie (z.B. Wasser)</tspan></text></switch>
    <switch><text transform="matrix(0.3463, 0, 0, 0.3463, 400.363, -336.139)" font-size="36" id="trsvg31-nl" systemLanguage="nl"><tspan id="trsvg2-nl">Standaard fasediagram</tspan></text><text transform="matrix(0.3463, 0, 0, 0.3463, 400.363, -336.139)" font-size="36" id="trsvg31"><tspan id="trsvg2">Stoff ohne Anomalie</tspan></text></switch>

    <switch><text id="text4748-nl" transform="matrix(0, -0.3463, 0.3463, 0, 393.241, -106.93)" systemLanguage="nl"><tspan id="trsvg3-nl">Druk</tspan></text><text id="text4748" transform="matrix(0, -0.3463, 0.3463, 0, 393.241, -106.93)"><tspan id="trsvg3">Druck</tspan></text></switch>
    <switch><text transform="matrix(0.3463, 0, 0, 0.3463, 570, -167.138)" letter-spacing="-1" id="trsvg32-nl" systemLanguage="nl"><tspan id="trsvg4-nl">Temperatuur</tspan></text><text transform="matrix(0.3463, 0, 0, 0.3463, 570, -167.138)" letter-spacing="-1" id="trsvg32"><tspan id="trsvg4">Temperatur</tspan></text></switch>

    <switch><text id="text4688-nl" transform="matrix(0.3463, 0, 0, 0.3463, 529.209, -169.139)" systemLanguage="nl"><tspan id="trsvg5-nl">kritische</tspan></text><text id="text4688" transform="matrix(0.3463, 0, 0, 0.3463, 529.209, -169.139)"><tspan id="trsvg5">kritische</tspan></text></switch>
    <switch><text transform="matrix(0.3463, 0, 0, 0.3463, 519.466, -159.761)" letter-spacing="-1" id="trsvg33-nl" systemLanguage="nl"><tspan id="trsvg6-nl">temperatuur</tspan></text><text transform="matrix(0.3463, 0, 0, 0.3463, 519.466, -159.761)" letter-spacing="-1" id="trsvg33"><tspan id="trsvg6">Temperatur</tspan></text></switch>
    <switch><text id="text4692-nl" transform="matrix(0.3463, 0, 0, 0.3463, 534.513, 30.862)" systemLanguage="nl"><tspan id="trsvg7-nl">374 °C</tspan></text><text id="text4692" transform="matrix(0.3463, 0, 0, 0.3463, 534.513, 30.862)"><tspan id="trsvg7">374 °C</tspan></text></switch>
    <switch><text id="text4694-nl" transform="matrix(0.3463, 0, 0, 0.3463, 483.52, 30.862)" systemLanguage="nl"><tspan id="trsvg8-nl">100 °C</tspan></text><text id="text4694" transform="matrix(0.3463, 0, 0, 0.3463, 483.52, 30.862)"><tspan id="trsvg8">100 °C</tspan></text></switch>
    <switch><text id="text4696-nl" transform="matrix(0.3463, 0, 0, 0.3463, 432.813, 30.8614)" systemLanguage="nl"><tspan id="trsvg9-nl">0 °C</tspan></text><text id="text4696" transform="matrix(0.3463, 0, 0, 0.3463, 432.813, 30.8614)"><tspan id="trsvg9">0,01 °C</tspan></text></switch>		
    <switch><text id="text4698-nl" transform="matrix(0.3463, 0, 0, 0.3463, 372.735, -91.1381)" systemLanguage="nl"><tspan id="trsvg10-nl">221 bar</tspan></text><text id="text4698" transform="matrix(0.3463, 0, 0, 0.3463, 372.735, -91.1381)"><tspan id="trsvg10">221 bar</tspan></text></switch>
    <switch><text id="text4700-nl" transform="matrix(0.3463, 0, 0, 0.3463, 381.315, -30.2081)" systemLanguage="nl"><tspan id="trsvg11-nl">1 bar</tspan></text><text id="text4700" transform="matrix(0.3463, 0, 0, 0.3463, 381.315, -30.2081)"><tspan id="trsvg11">1 bar</tspan></text></switch>
    <switch><text id="text4702-nl" transform="matrix(0.3463, 0, 0, 0.3463, 366.39, -291.138)" systemLanguage="nl"><tspan id="trsvg12-nl">kritische</tspan></text><text id="text4702" transform="matrix(0.3463, 0, 0, 0.3463, 366.39, -291.138)"><tspan id="trsvg12">kritischer</tspan></text></switch>
    <switch><text id="text4704-nl" transform="matrix(0.3463, 0, 0, 0.3463, 377.205, -281.762)" systemLanguage="nl"><tspan id="trsvg13-nl">druk</tspan></text><text id="text4704" transform="matrix(0.3463, 0, 0, 0.3463, 377.205, -281.762)"><tspan id="trsvg13">Druck</tspan></text></switch>
    <switch><text transform="matrix(0.3463, 0, 0, 0.3463, 570, 32.8616)" letter-spacing="-1" id="trsvg34-nl" systemLanguage="nl"><tspan id="trsvg14-nl">Temperatuur</tspan></text><text transform="matrix(0.3463, 0, 0, 0.3463, 570, 32.8616)" letter-spacing="-1" id="trsvg34"><tspan id="trsvg14">Temperatur</tspan></text></switch>
    <switch><text transform="matrix(0.3463, 0, 0, 0.3463, 465.363, -208.138)" id="trsvg35-nl" systemLanguage="nl"><tspan id="trsvg15-nl">tripelpunt</tspan></text><text transform="matrix(0.3463, 0, 0, 0.3463, 465.363, -208.138)" id="trsvg35"><tspan id="trsvg15">Tripelpunkt</tspan></text></switch>
    <switch><text transform="matrix(0.3463, 0, 0, 0.3463, 465.363, -8.1384)" id="trsvg36-nl" systemLanguage="nl"><tspan id="trsvg16-nl">tripelpunt</tspan></text><text transform="matrix(0.3463, 0, 0, 0.3463, 465.363, -8.1384)" id="trsvg36"><tspan id="trsvg16">Tripelpunkt</tspan></text></switch>
    <switch><text id="text4718-nl" transform="matrix(0.3463, 0, 0, 0.3463, 564.363, -288.138)" systemLanguage="nl"><tspan id="trsvg17-nl">kritisch</tspan></text><text id="text4718" transform="matrix(0.3463, 0, 0, 0.3463, 564.363, -288.138)"><tspan id="trsvg17">Kritischer</tspan></text></switch>
    <switch><text id="text4720-nl" transform="matrix(0.3463, 0, 0, 0.3463, 564.363, -278.762)" systemLanguage="nl"><tspan id="trsvg18-nl">punt</tspan></text><text id="text4720" transform="matrix(0.3463, 0, 0, 0.3463, 564.363, -278.762)"><tspan id="trsvg18">Punkt</tspan></text></switch>
    <switch><text id="text4722-nl" transform="matrix(0.3463, 0, 0, 0.3463, 564.363, -88.1381)" systemLanguage="nl"><tspan id="trsvg19-nl">kritisch</tspan></text><text id="text4722" transform="matrix(0.3463, 0, 0, 0.3463, 564.363, -88.1381)"><tspan id="trsvg19">Kritischer</tspan></text></switch>
    <switch><text id="text4724-nl" transform="matrix(0.3463, 0, 0, 0.3463, 564.363, -78.7612)" systemLanguage="nl"><tspan id="trsvg20-nl">punt</tspan></text><text id="text4724" transform="matrix(0.3463, 0, 0, 0.3463, 564.363, -78.7612)"><tspan id="trsvg20">Punkt</tspan></text></switch>
    <switch><text id="text4744-nl" transform="matrix(0, -0.3463, 0.3463, 0, 393.241, -306.931)" systemLanguage="nl"><tspan id="trsvg21-nl">Druk</tspan></text><text id="text4744" transform="matrix(0, -0.3463, 0.3463, 0, 393.241, -306.931)"><tspan id="trsvg21">Druck</tspan></text></switch>
    <switch><text id="text2444-nl" transform="matrix(0.3463, 0, 0, 0.3463, 366.753, -8.7316)" systemLanguage="nl"><tspan id="trsvg22-nl">0,006 bar</tspan></text><text id="text2444" transform="matrix(0.3463, 0, 0, 0.3463, 366.753, -8.7316)"><tspan id="trsvg22">0,006 bar</tspan></text></switch>
   </g>

   <g fill="#1F1A17" font-family="TimesNewRomanPS-ItalicMT" font-size="30">
    <switch><text id="text4708-nl" transform="matrix(0.3463, 0, 0, 0.3463, 500.363, -188.139)" systemLanguage="nl"><tspan id="trsvg23-nl">gas</tspan></text><text id="text4708" transform="matrix(0.3463, 0, 0, 0.3463, 500.363, -188.139)"><tspan id="trsvg23">gasförmig</tspan></text></switch>
    <switch><text transform="matrix(0.3463, 0, 0, 0.3463, 514.652, -11.3332)" letter-spacing="-2" id="trsvg37-nl" systemLanguage="nl"><tspan id="trsvg24-nl">water-</tspan></text><text transform="matrix(0.3463, 0, 0, 0.3463, 514.652, -11.3332)" letter-spacing="-2" id="trsvg37"><tspan id="trsvg24">Wasser-</tspan></text></switch>
    <switch><text id="text4712-nl" transform="matrix(0.3463, 0, 0, 0.3463, 514.652, 2.7314)" systemLanguage="nl"><tspan id="trsvg25-nl">damp</tspan></text><text id="text4712" transform="matrix(0.3463, 0, 0, 0.3463, 514.652, 2.7314)"><tspan id="trsvg25">dampf</tspan></text></switch>   
    <switch><text id="text4726-nl" transform="matrix(0.3463, 0, 0, 0.3463, 497.363, -284.139)" systemLanguage="nl"><tspan id="trsvg26-nl">vloeibaar</tspan></text><text id="text4726" transform="matrix(0.3463, 0, 0, 0.3463, 497.363, -284.139)"><tspan id="trsvg26">flüssig</tspan></text></switch>
    <switch><text transform="matrix(0.3463, 0, 0, 0.3463, 470.363, -68.1383)" letter-spacing="-2" id="trsvg38-nl" systemLanguage="nl"><tspan id="trsvg27-nl">water</tspan></text><text transform="matrix(0.3463, 0, 0, 0.3463, 470.363, -68.1383)" letter-spacing="-2" id="trsvg38"><tspan id="trsvg27">Wasser</tspan></text></switch> 
    <switch><text id="text4768-nl" transform="matrix(0.3463, 0, 0, 0.3463, 418.363, -268.139)" systemLanguage="nl"><tspan id="trsvg28-nl">vast</tspan></text><text id="text4768" transform="matrix(0.3463, 0, 0, 0.3463, 418.363, -268.139)"><tspan id="trsvg28">fest</tspan></text></switch>
    <switch><text id="text4770-nl" transform="matrix(0.3463, 0, 0, 0.3463, 416.407, -22.3491)" systemLanguage="nl"><tspan id="trsvg29-nl">ijs</tspan></text><text id="text4770" transform="matrix(0.3463, 0, 0, 0.3463, 416.407, -22.3491)"><tspan id="trsvg29">Eis</tspan></text></switch>
   </g>

  </g>
 </g>

</svg>
