<svg width="178mm" height="184mm" fill="#ffffff" version="1.1" viewBox="0 0 178 184" xmlns="http://www.w3.org/2000/svg" xmlns:xlink="http://www.w3.org/1999/xlink"><defs><linearGradient id="a" x1="110" x2="150" y1="284" y2="244" gradientTransform="translate(-86-198)" gradientUnits="userSpaceOnUse"><stop stop-color="#00b" offset="0"/><stop stop-color="#99f" offset="1"/></linearGradient><radialGradient id="d" cx="-13" cy="-113" r="62" gradientTransform="matrix(.24 0 0 .24 102 154)" gradientUnits="userSpaceOnUse"><stop stop-color="#fff" offset="0"/><stop stop-color="#fff" stop-opacity="0" offset="1"/></radialGradient><linearGradient id="f" x1="110" x2="150" y1="284" y2="244" gradientTransform="translate(4-198)" gradientUnits="userSpaceOnUse"><stop stop-color="#c00" offset="0"/><stop stop-color="#faa" offset="1"/></linearGradient><linearGradient id="e" x1="110" x2="150" y1="284" y2="244" gradientTransform="translate(-41-120)" gradientUnits="userSpaceOnUse"><stop stop-color="#0a0" offset="0"/><stop stop-color="#0f0" offset="1"/></linearGradient></defs>
 <rect width="178" height="184" fill="#fff"/><circle cx="89" cy="92" r="88" fill="#ccc"/><circle cx="44" cy="66" r="29" fill="url(#a)"/><circle cx="134" cy="66" r="29" fill="url(#f)"/><circle cx="89" cy="144" r="29" fill="url(#e)"/>
 <g id="b"><path id="i" d="m89 60c-3 0-4 10-7 10s-4-10-7-10-4 6-5 10" fill="none" stroke="#ffb" stroke-linecap="round" stroke-width="2.6"/><use transform="matrix(-1 0 0 1 178 0)" xlink:href="#i"/></g>
 <circle id="g" cx="99" cy="127" r="17" fill="url(#d)"/><use transform="translate(45-74)" xlink:href="#g"/><use transform="translate(-43-73)" xlink:href="#g"/>
 <g fill="#fff" font-family="Times" font-size="56px" stroke="#666"><text x="72" y="163">d</text><text id="c" x="121" y="78">u</text><use transform="translate(-92)" xlink:href="#c"/></g>
 <use transform="rotate(120 89 92)" xlink:href="#b"/><use transform="rotate(240 89 92)" xlink:href="#b"/></svg>